<svg width="26" height="21" viewBox="0 0 26 21" fill="none" xmlns="http://www.w3.org/2000/svg">
<path d="M0 17.3232V8.14746H25.7783V17.3232C25.7783 18.4834 25.4854 19.3652 24.8994 19.9688C24.3193 20.5723 23.4961 20.874 22.4297 20.874H3.58594C2.4082 20.874 1.51465 20.5723 0.905273 19.9688C0.301758 19.3711 0 18.4893 0 17.3232ZM0 6.69727V3.42773C0 2.29687 0.28125 1.44434 0.84375 0.870117C1.40625 0.290039 2.19727 0 3.2168 0H6.4248C6.81738 0 7.1543 0.0263672 7.43555 0.0791016C7.7168 0.131836 7.97461 0.222656 8.20898 0.351562C8.44336 0.474609 8.68945 0.644531 8.94727 0.861328L9.58887 1.39746C9.89941 1.66113 10.1953 1.8457 10.4766 1.95117C10.7637 2.05078 11.1152 2.10059 11.5312 2.10059H22.1924C23.3701 2.10059 24.2607 2.40234 24.8643 3.00586C25.4736 3.60352 25.7783 4.48535 25.7783 5.65137V6.69727H0Z" fill="#007BFE"/>
</svg>
