<svg width="27" height="21" viewBox="0 0 27 21" fill="none" xmlns="http://www.w3.org/2000/svg">
<path d="M21.3232 8.23926C20.9508 8.23926 20.6357 8.11035 20.3779 7.85254C20.1201 7.58757 19.9912 7.27246 19.9912 6.90723C19.9912 6.53483 20.1201 6.21973 20.3779 5.96191C20.6357 5.7041 20.9508 5.5752 21.3232 5.5752C21.6885 5.5752 22 5.7041 22.2578 5.96191C22.5228 6.21973 22.6553 6.53483 22.6553 6.90723C22.6553 7.27246 22.5228 7.58757 22.2578 7.85254C22 8.11035 21.6885 8.23926 21.3232 8.23926ZM3.37305 20.4854C2.2487 20.4854 1.40365 20.2061 0.837891 19.6475C0.279297 19.096 0 18.2653 0 17.1553V5.9082C0 4.80534 0.279297 3.97819 0.837891 3.42676C1.40365 2.86816 2.2487 2.58887 3.37305 2.58887H6.37012C6.79264 2.58887 7.10417 2.53874 7.30469 2.43848C7.50521 2.33105 7.72363 2.14486 7.95996 1.87988L8.81934 0.913086C9.09147 0.619466 9.38509 0.39388 9.7002 0.236328C10.0225 0.078776 10.4593 0 11.0107 0H15.2969C15.8483 0 16.2852 0.078776 16.6074 0.236328C16.9297 0.39388 17.2233 0.619466 17.4883 0.913086L18.3477 1.87988C18.5124 2.05892 18.6592 2.20215 18.7881 2.30957C18.9242 2.40983 19.0781 2.48145 19.25 2.52441C19.4219 2.56738 19.651 2.58887 19.9375 2.58887H23.0098C24.127 2.58887 24.9684 2.86816 25.5342 3.42676C26.0999 3.97819 26.3828 4.80534 26.3828 5.9082V17.1553C26.3828 18.2653 26.0999 19.096 25.5342 19.6475C24.9684 20.2061 24.127 20.4854 23.0098 20.4854H3.37305ZM3.39453 18.7559H22.9775C23.5075 18.7559 23.9193 18.6162 24.2129 18.3369C24.5065 18.0505 24.6533 17.6279 24.6533 17.0693V6.00488C24.6533 5.44629 24.5065 5.02734 24.2129 4.74805C23.9193 4.46159 23.5075 4.31836 22.9775 4.31836H19.5078C19.0208 4.31836 18.627 4.26465 18.3262 4.15723C18.0326 4.04264 17.7497 3.83496 17.4775 3.53418L16.6396 2.58887C16.3317 2.24512 16.0596 2.01595 15.8232 1.90137C15.5869 1.78678 15.2324 1.72949 14.7598 1.72949H11.5479C11.0752 1.72949 10.7207 1.78678 10.4844 1.90137C10.248 2.01595 9.97591 2.24512 9.66797 2.58887L8.83008 3.53418C8.55794 3.83496 8.27148 4.04264 7.9707 4.15723C7.67708 4.26465 7.28678 4.31836 6.7998 4.31836H3.39453C2.86458 4.31836 2.4528 4.46159 2.15918 4.74805C1.87272 5.02734 1.72949 5.44629 1.72949 6.00488V17.0693C1.72949 17.6279 1.87272 18.0505 2.15918 18.3369C2.4528 18.6162 2.86458 18.7559 3.39453 18.7559ZM13.1914 17.209C12.375 17.209 11.6123 17.0586 10.9033 16.7578C10.1943 16.457 9.57129 16.0381 9.03418 15.501C8.50423 14.9639 8.08529 14.3408 7.77734 13.6318C7.47656 12.9229 7.32617 12.1566 7.32617 11.333C7.32617 10.5166 7.47656 9.75391 7.77734 9.04492C8.08529 8.33594 8.50423 7.71289 9.03418 7.17578C9.57129 6.63867 10.1943 6.21973 10.9033 5.91895C11.6123 5.61816 12.375 5.46777 13.1914 5.46777C14.2728 5.46777 15.2575 5.72917 16.1455 6.25195C17.0335 6.77474 17.7389 7.48014 18.2617 8.36816C18.7845 9.25618 19.0459 10.2445 19.0459 11.333C19.0459 12.1566 18.8955 12.9229 18.5947 13.6318C18.2939 14.3408 17.875 14.9639 17.3379 15.501C16.8008 16.0381 16.1777 16.457 15.4688 16.7578C14.7598 17.0586 14.0007 17.209 13.1914 17.209ZM13.1914 15.5762C13.972 15.5762 14.681 15.3864 15.3184 15.0068C15.9629 14.6273 16.4749 14.1188 16.8545 13.4814C17.234 12.8369 17.4238 12.1208 17.4238 11.333C17.4238 10.5524 17.234 9.84342 16.8545 9.20605C16.4749 8.56152 15.9629 8.04948 15.3184 7.66992C14.681 7.2832 13.972 7.08984 13.1914 7.08984C12.4108 7.08984 11.6982 7.2832 11.0537 7.66992C10.4163 8.04948 9.9043 8.56152 9.51758 9.20605C9.13802 9.84342 8.94824 10.5524 8.94824 11.333C8.94824 12.1208 9.13802 12.8369 9.51758 13.4814C9.9043 14.1188 10.4163 14.6273 11.0537 15.0068C11.6982 15.3864 12.4108 15.5762 13.1914 15.5762Z" fill="#E4AF0A"/>
</svg>
