<svg width="22" height="16" viewBox="0 0 22 16" fill="none" xmlns="http://www.w3.org/2000/svg">
<path d="M1.35352 2.70703C0.98112 2.70703 0.662435 2.57812 0.397461 2.32031C0.132487 2.05534 0 1.73307 0 1.35352C0 0.98112 0.132487 0.662435 0.397461 0.397461C0.662435 0.132487 0.98112 0 1.35352 0C1.72591 0 2.0446 0.132487 2.30957 0.397461C2.57454 0.662435 2.70703 0.98112 2.70703 1.35352C2.70703 1.73307 2.57454 2.05534 2.30957 2.32031C2.0446 2.57812 1.72591 2.70703 1.35352 2.70703ZM6.10156 2.22363C5.85807 2.22363 5.65039 2.14128 5.47852 1.97656C5.3138 1.80469 5.23145 1.59701 5.23145 1.35352C5.23145 1.11003 5.3138 0.905924 5.47852 0.741211C5.65039 0.576497 5.85807 0.494141 6.10156 0.494141H20.7646C21.0081 0.494141 21.2158 0.576497 21.3877 0.741211C21.5596 0.905924 21.6455 1.11003 21.6455 1.35352C21.6455 1.59701 21.5596 1.80469 21.3877 1.97656C21.2158 2.14128 21.0081 2.22363 20.7646 2.22363H6.10156ZM1.35352 9.20605C0.98112 9.20605 0.662435 9.07357 0.397461 8.80859C0.132487 8.54362 0 8.22493 0 7.85254C0 7.48014 0.132487 7.16146 0.397461 6.89648C0.662435 6.63151 0.98112 6.49902 1.35352 6.49902C1.72591 6.49902 2.0446 6.63151 2.30957 6.89648C2.57454 7.16146 2.70703 7.48014 2.70703 7.85254C2.70703 8.22493 2.57454 8.54362 2.30957 8.80859C2.0446 9.07357 1.72591 9.20605 1.35352 9.20605ZM6.10156 8.71191C5.85807 8.71191 5.65039 8.62956 5.47852 8.46484C5.3138 8.30013 5.23145 8.09603 5.23145 7.85254C5.23145 7.60905 5.3138 7.40495 5.47852 7.24023C5.65039 7.06836 5.85807 6.98242 6.10156 6.98242H20.7646C21.0081 6.98242 21.2158 7.06836 21.3877 7.24023C21.5596 7.40495 21.6455 7.60905 21.6455 7.85254C21.6455 8.09603 21.5596 8.30013 21.3877 8.46484C21.2158 8.62956 21.0081 8.71191 20.7646 8.71191H6.10156ZM1.35352 15.6943C0.98112 15.6943 0.662435 15.5654 0.397461 15.3076C0.132487 15.0426 0 14.7204 0 14.3408C0 13.9684 0.132487 13.6533 0.397461 13.3955C0.662435 13.1305 0.98112 12.998 1.35352 12.998C1.72591 12.998 2.0446 13.1305 2.30957 13.3955C2.57454 13.6533 2.70703 13.9684 2.70703 14.3408C2.70703 14.7204 2.57454 15.0426 2.30957 15.3076C2.0446 15.5654 1.72591 15.6943 1.35352 15.6943ZM6.10156 15.2109C5.85807 15.2109 5.65039 15.1286 5.47852 14.9639C5.3138 14.792 5.23145 14.5843 5.23145 14.3408C5.23145 14.0973 5.3138 13.8932 5.47852 13.7285C5.65039 13.5638 5.85807 13.4814 6.10156 13.4814H20.7646C21.0081 13.4814 21.2158 13.5638 21.3877 13.7285C21.5596 13.8932 21.6455 14.0973 21.6455 14.3408C21.6455 14.5843 21.5596 14.792 21.3877 14.9639C21.2158 15.1286 21.0081 15.2109 20.7646 15.2109H6.10156Z" fill="#007AFF"/>
</svg>
