<svg width="12" height="18" viewBox="0 0 12 18" fill="none" xmlns="http://www.w3.org/2000/svg">
<path d="M0 8.69092V7.00586C0 6.83431 0.0608724 6.68766 0.182617 6.56592C0.304362 6.44417 0.451009 6.3833 0.622559 6.3833C0.799642 6.3833 0.949056 6.44417 1.0708 6.56592C1.19255 6.68766 1.25342 6.83431 1.25342 7.00586V8.64111C1.25342 9.58187 1.4471 10.4064 1.83447 11.1147C2.22184 11.8231 2.76693 12.3737 3.46973 12.7666C4.17253 13.154 4.99707 13.3477 5.94336 13.3477C6.88965 13.3477 7.71143 13.154 8.40869 12.7666C9.11149 12.3737 9.65658 11.8231 10.0439 11.1147C10.4313 10.4064 10.625 9.58187 10.625 8.64111V7.00586C10.625 6.83431 10.6859 6.68766 10.8076 6.56592C10.9294 6.44417 11.0788 6.3833 11.2559 6.3833C11.4274 6.3833 11.5741 6.44417 11.6958 6.56592C11.8175 6.68766 11.8784 6.83431 11.8784 7.00586V8.69092C11.8784 9.77555 11.6543 10.7384 11.2061 11.5796C10.7633 12.4207 10.1436 13.0959 9.34668 13.605C8.5498 14.1086 7.62288 14.4046 6.56592 14.4932V16.4272H9.64551C9.82259 16.4272 9.97201 16.4881 10.0938 16.6099C10.2155 16.7316 10.2764 16.881 10.2764 17.0581C10.2764 17.2297 10.2155 17.3763 10.0938 17.498C9.97201 17.6198 9.82259 17.6807 9.64551 17.6807H2.23291C2.05583 17.6807 1.90641 17.6198 1.78467 17.498C1.66292 17.3763 1.60205 17.2297 1.60205 17.0581C1.60205 16.881 1.66292 16.7316 1.78467 16.6099C1.90641 16.4881 2.05583 16.4272 2.23291 16.4272H5.3125V14.4932C4.25553 14.4046 3.32861 14.1086 2.53174 13.605C1.73486 13.0959 1.1123 12.4207 0.664062 11.5796C0.221354 10.7384 0 9.77555 0 8.69092ZM5.94336 11.563C5.38997 11.563 4.90576 11.4357 4.49072 11.1812C4.07568 10.9266 3.75195 10.5752 3.51953 10.127C3.28711 9.67318 3.1709 9.15023 3.1709 8.55811V3.00488C3.1709 2.41276 3.28711 1.89258 3.51953 1.44434C3.75195 0.99056 4.07568 0.636393 4.49072 0.381836C4.90576 0.127279 5.38997 0 5.94336 0C6.49121 0 6.97266 0.127279 7.3877 0.381836C7.80827 0.636393 8.132 0.99056 8.35889 1.44434C8.59131 1.89258 8.70752 2.41276 8.70752 3.00488V8.55811C8.70752 9.15023 8.59131 9.67318 8.35889 10.127C8.132 10.5752 7.80827 10.9266 7.3877 11.1812C6.97266 11.4357 6.49121 11.563 5.94336 11.563Z" fill="#3C3C43" fill-opacity="0.6"/>
</svg>
