<svg width="22" height="22" viewBox="0 0 22 22" fill="none" xmlns="http://www.w3.org/2000/svg">
<path d="M10.2588 6.08008C10.3376 5.85091 10.4736 5.69694 10.667 5.61816C10.8675 5.53939 11.0645 5.53939 11.2578 5.61816C11.4512 5.69694 11.5872 5.85091 11.666 6.08008L13.6855 12.1064H8.25L10.2588 6.08008ZM15.3291 20.0771C15.2145 20.0843 15.1071 20.0628 15.0068 20.0127C14.9137 19.9697 14.8314 19.9089 14.7598 19.8301C14.6953 19.7513 14.6523 19.6546 14.6309 19.54L13.1807 12.7295L13.3311 12.8262H8.60449L8.74414 12.7295L7.29395 19.54C7.25814 19.7262 7.15788 19.8695 6.99316 19.9697C6.83561 20.07 6.66374 20.1022 6.47754 20.0664C6.29134 20.0378 6.14453 19.9411 6.03711 19.7764C5.92969 19.6188 5.89388 19.4469 5.92969 19.2607L7.40137 12.3535C7.45866 12.0957 7.58398 11.8809 7.77734 11.709C7.9707 11.5299 8.19629 11.4404 8.4541 11.4404H13.4707C13.7285 11.4404 13.9541 11.5299 14.1475 11.709C14.348 11.8809 14.4733 12.0993 14.5234 12.3643L15.9951 19.2607C16.0381 19.4827 15.9772 19.6725 15.8125 19.8301C15.6478 19.9948 15.4867 20.0771 15.3291 20.0771ZM10.957 21.9141C9.44596 21.9141 8.02799 21.6276 6.70312 21.0547C5.37826 20.4889 4.21452 19.7048 3.21191 18.7021C2.20931 17.6995 1.42155 16.5358 0.848633 15.2109C0.282878 13.8861 0 12.4681 0 10.957C0 9.44596 0.282878 8.02799 0.848633 6.70312C1.42155 5.37826 2.20931 4.21452 3.21191 3.21191C4.21452 2.20215 5.37826 1.41439 6.70312 0.848633C8.02799 0.282878 9.44596 0 10.957 0C12.4681 0 13.8861 0.282878 15.2109 0.848633C16.5358 1.41439 17.6995 2.20215 18.7021 3.21191C19.7048 4.21452 20.4889 5.37826 21.0547 6.70312C21.6276 8.02799 21.9141 9.44596 21.9141 10.957C21.9141 12.4681 21.6276 13.8861 21.0547 15.2109C20.4889 16.5358 19.7048 17.6995 18.7021 18.7021C17.6995 19.7048 16.5358 20.4889 15.2109 21.0547C13.8861 21.6276 12.4681 21.9141 10.957 21.9141ZM10.957 20.0879C12.2174 20.0879 13.3991 19.8516 14.502 19.3789C15.6048 18.9062 16.5752 18.251 17.4131 17.4131C18.251 16.5752 18.9062 15.6048 19.3789 14.502C19.8516 13.3991 20.0879 12.2174 20.0879 10.957C20.0879 9.69661 19.8516 8.51497 19.3789 7.41211C18.9062 6.30208 18.251 5.33171 17.4131 4.50098C16.5752 3.66309 15.6048 3.00781 14.502 2.53516C13.3991 2.0625 12.2174 1.82617 10.957 1.82617C9.69661 1.82617 8.51497 2.0625 7.41211 2.53516C6.30924 3.00781 5.33887 3.66309 4.50098 4.50098C3.66309 5.33171 3.00781 6.30208 2.53516 7.41211C2.0625 8.51497 1.82617 9.69661 1.82617 10.957C1.82617 12.2174 2.0625 13.3991 2.53516 14.502C3.00781 15.6048 3.66309 16.5752 4.50098 17.4131C5.33887 18.251 6.30924 18.9062 7.41211 19.3789C8.51497 19.8516 9.69661 20.0879 10.957 20.0879Z" fill="#E4AF0A"/>
</svg>
