<svg width="24" height="24" viewBox="0 0 24 24" fill="none" xmlns="http://www.w3.org/2000/svg">
<path d="M5.7041 12.9199H11.584C11.8066 12.9199 11.9941 12.8438 12.1465 12.6914C12.3047 12.5332 12.3838 12.3428 12.3838 12.1201V4.5C12.3838 4.27734 12.3047 4.08984 12.1465 3.9375C11.9941 3.78516 11.8066 3.70898 11.584 3.70898C11.3613 3.70898 11.1738 3.78516 11.0215 3.9375C10.8691 4.08984 10.793 4.27734 10.793 4.5V11.3291H5.7041C5.48145 11.3291 5.29395 11.4053 5.1416 11.5576C4.98926 11.71 4.91309 11.8975 4.91309 12.1201C4.91309 12.3428 4.98926 12.5332 5.1416 12.6914C5.29395 12.8438 5.48145 12.9199 5.7041 12.9199ZM11.5928 23.1943C10.3154 23.1943 9.09668 22.998 7.93652 22.6055C6.78223 22.2129 5.72168 21.6621 4.75488 20.9531C3.78809 20.2441 2.9502 19.4062 2.24121 18.4395C1.53223 17.4727 0.981445 16.4121 0.588867 15.2578C0.196289 14.0977 0 12.8789 0 11.6016C0 10.3184 0.196289 9.09961 0.588867 7.94531C0.981445 6.78516 1.53223 5.72461 2.24121 4.76367C2.9502 3.79688 3.78809 2.95898 4.75488 2.25C5.72168 1.53516 6.78223 0.981445 7.93652 0.588867C9.09668 0.196289 10.3154 0 11.5928 0C12.876 0 14.0947 0.196289 15.249 0.588867C16.4092 0.981445 17.4697 1.53516 18.4307 2.25C19.3975 2.95898 20.2354 3.79688 20.9443 4.76367C21.6592 5.72461 22.2129 6.78516 22.6055 7.94531C22.998 9.09961 23.1943 10.3184 23.1943 11.6016C23.1943 12.8789 22.998 14.0977 22.6055 15.2578C22.2129 16.4121 21.6592 17.4727 20.9443 18.4395C20.2354 19.4062 19.3975 20.2441 18.4307 20.9531C17.4697 21.6621 16.4092 22.2129 15.249 22.6055C14.0947 22.998 12.876 23.1943 11.5928 23.1943Z" fill="#999999"/>
</svg>
