<svg width="25" height="22" viewBox="0 0 25 22" fill="none" xmlns="http://www.w3.org/2000/svg">
<path d="M4.62988 21.6992C3.79199 21.6992 3.02214 21.488 2.32031 21.0654C1.61849 20.6429 1.05632 20.0807 0.633789 19.3789C0.211263 18.6771 0 17.9072 0 17.0693C0 16.2243 0.207682 15.4508 0.623047 14.749C1.04557 14.0472 1.60775 13.485 2.30957 13.0625C3.01139 12.64 3.78483 12.4287 4.62988 12.4287C5.47493 12.4287 6.24479 12.64 6.93945 13.0625C7.64128 13.4779 8.20345 14.0365 8.62598 14.7383C9.0485 15.4401 9.25977 16.2171 9.25977 17.0693C9.25977 17.9072 9.0485 18.6771 8.62598 19.3789C8.20345 20.0807 7.64128 20.6429 6.93945 21.0654C6.24479 21.488 5.47493 21.6992 4.62988 21.6992ZM4.62988 20.1309C5.18132 20.1309 5.68978 19.9912 6.15527 19.7119C6.62077 19.4326 6.99316 19.0602 7.27246 18.5947C7.55176 18.1292 7.69141 17.6208 7.69141 17.0693C7.69141 16.5107 7.55176 15.9987 7.27246 15.5332C6.99316 15.0677 6.62077 14.6953 6.15527 14.416C5.68978 14.1367 5.18132 13.9971 4.62988 13.9971C4.07845 13.9971 3.56999 14.1367 3.10449 14.416C2.639 14.6953 2.2666 15.0677 1.9873 15.5332C1.70801 15.9987 1.56836 16.5107 1.56836 17.0693C1.56836 17.6208 1.70801 18.1292 1.9873 18.5947C2.2666 19.0602 2.639 19.4326 3.10449 19.7119C3.56999 19.9912 4.07845 20.1309 4.62988 20.1309ZM12.5254 5.51074C12.2819 5.51074 12.0742 5.42839 11.9023 5.26367C11.7376 5.0918 11.6553 4.88411 11.6553 4.64062C11.6553 4.39714 11.7376 4.19303 11.9023 4.02832C12.0742 3.86361 12.2819 3.78125 12.5254 3.78125H23.2031C23.4466 3.78125 23.6543 3.86361 23.8262 4.02832C23.998 4.19303 24.084 4.39714 24.084 4.64062C24.084 4.88411 23.998 5.0918 23.8262 5.26367C23.6543 5.42839 23.4466 5.51074 23.2031 5.51074H12.5254ZM12.5254 17.9287C12.2819 17.9287 12.0742 17.8464 11.9023 17.6816C11.7376 17.5098 11.6553 17.3057 11.6553 17.0693C11.6553 16.8258 11.7376 16.6217 11.9023 16.457C12.0742 16.2852 12.2819 16.1992 12.5254 16.1992H23.2031C23.4466 16.1992 23.6543 16.2852 23.8262 16.457C23.998 16.6217 24.084 16.8258 24.084 17.0693C24.084 17.3057 23.998 17.5098 23.8262 17.6816C23.6543 17.8464 23.4466 17.9287 23.2031 17.9287H12.5254ZM4.62988 9.27051C3.79199 9.27051 3.02214 9.05924 2.32031 8.63672C1.61849 8.21419 1.05632 7.65202 0.633789 6.9502C0.211263 6.24837 0 5.47493 0 4.62988C0 3.78483 0.207682 3.01139 0.623047 2.30957C1.04557 1.60775 1.60775 1.04915 2.30957 0.633789C3.01139 0.211263 3.78483 0 4.62988 0C5.47493 0 6.24479 0.211263 6.93945 0.633789C7.64128 1.04915 8.20345 1.60775 8.62598 2.30957C9.0485 3.01139 9.25977 3.78483 9.25977 4.62988C9.25977 5.47493 9.0485 6.24837 8.62598 6.9502C8.20345 7.65202 7.64128 8.21419 6.93945 8.63672C6.24479 9.05924 5.47493 9.27051 4.62988 9.27051ZM4.08203 7.12207C4.31836 7.12207 4.50098 7.02181 4.62988 6.82129L6.875 3.29785C6.9681 3.14746 7.01465 3.00065 7.01465 2.85742C7.01465 2.72135 6.95736 2.60319 6.84277 2.50293C6.73535 2.40267 6.60645 2.35254 6.45605 2.35254C6.2627 2.35254 6.10156 2.4528 5.97266 2.65332L4.06055 5.72559L3.22266 4.66211C3.15104 4.56901 3.07585 4.50098 2.99707 4.45801C2.92546 4.41504 2.83594 4.39355 2.72852 4.39355C2.58529 4.39355 2.45996 4.44727 2.35254 4.55469C2.25228 4.66211 2.20215 4.7946 2.20215 4.95215C2.20215 5.11686 2.2487 5.25651 2.3418 5.37109L3.54492 6.82129C3.6237 6.91439 3.70247 6.98958 3.78125 7.04688C3.86719 7.09701 3.96745 7.12207 4.08203 7.12207Z" fill="#E4AF0A"/>
</svg>
