<svg width="120" height="120" viewBox="0 0 120 120" fill="none" xmlns="http://www.w3.org/2000/svg">
<path fill-rule="evenodd" clip-rule="evenodd" d="M91.4062 0C108.75 0 120 11.25 120 28.5938V91.4062C120 108.75 108.75 120 91.4062 120H28.5938C11.25 120 0 108.75 0 91.4062V28.5938C0 11.25 11.25 0 28.5938 0H91.4062Z" fill="url(#paint0_linear_401_4102)"/>
<path fill-rule="evenodd" clip-rule="evenodd" d="M37.4249 90.656C26.9033 83.585 20.0001 71.7085 20.0001 58.25C20.0001 36.5728 37.9087 19 60.0001 19C82.0915 19 100 36.5728 100 58.25C100 79.9272 82.0915 97.5 60.0001 97.5C55.2506 97.5 50.6945 96.6878 46.4681 95.1971C44.9225 96.5882 41.9578 98.7328 38.7153 100.182C33.3674 102.572 27.8694 103.432 32.6794 99.4603C36.7795 96.0743 37.6323 92.9619 37.4249 90.656ZM60.0001 35C63.3138 35 65.8505 37.6821 65.6654 41.0003L64.4381 62.9997C64.2532 66.3136 62.2616 69 60.0001 69C57.7339 69 55.7472 66.3179 55.5621 62.9997L54.3348 41.0003C54.15 37.6864 56.6931 35 60.0001 35ZM60.0001 82C62.2092 82 64.0001 80.2091 64.0001 78C64.0001 75.7909 62.2092 74 60.0001 74C57.791 74 56.0001 75.7909 56.0001 78C56.0001 80.2091 57.791 82 60.0001 82Z" fill="url(#paint1_linear_401_4102)"/>
<defs>
<linearGradient id="paint0_linear_401_4102" x1="0" y1="0" x2="0" y2="120" gradientUnits="userSpaceOnUse">
<stop stop-color="#CF8BEE"/>
<stop offset="1" stop-color="#A852F1"/>
</linearGradient>
<linearGradient id="paint1_linear_401_4102" x1="20.0001" y1="19" x2="20.0001" y2="102.207" gradientUnits="userSpaceOnUse">
<stop stop-color="#FAFDFC"/>
<stop offset="1" stop-color="#D7D6D5"/>
</linearGradient>
</defs>
</svg>
