<svg width="120" height="120" viewBox="0 0 120 120" fill="none" xmlns="http://www.w3.org/2000/svg">
<path fill-rule="evenodd" clip-rule="evenodd" d="M91.4062 0C108.75 0 120 11.25 120 28.5938V91.4062C120 108.75 108.75 120 91.4062 120H28.5938C11.25 120 0 108.75 0 91.4062V28.5938C0 11.25 11.25 0 28.5938 0H91.4062Z" fill="url(#paint0_linear_401_1254)"/>
<mask id="mask0_401_1254" style="mask-type:alpha" maskUnits="userSpaceOnUse" x="0" y="0" width="120" height="120">
<path fill-rule="evenodd" clip-rule="evenodd" d="M91.4062 0C108.75 0 120 11.25 120 28.5938V91.4062C120 108.75 108.75 120 91.4062 120H28.5938C11.25 120 0 108.75 0 91.4062V28.5938C0 11.25 11.25 0 28.5938 0H91.4062Z" fill="white"/>
</mask>
<g mask="url(#mask0_401_1254)">
<path d="M125.5 94H25.5C24.6716 94 24 94.6716 24 95.5C24 96.3284 24.6716 97 25.5 97H125.5C126.328 97 127 96.3284 127 95.5C127 94.6716 126.328 94 125.5 94Z" fill="white"/>
<path fill-rule="evenodd" clip-rule="evenodd" d="M93.407 32.2679C93.407 32.2679 94.156 31.1889 94.938 31.9429C95.719 32.6969 94.938 33.1719 94.938 33.1719L75.531 53.4719C75.531 53.4719 72.097 57.0459 74.638 59.6989C74.638 59.6989 75.671 60.7319 76.201 59.5029C76.732 58.2739 76.397 57.3809 76.397 57.3809C76.397 57.3809 76.163 56.5979 77.073 55.5459C77.984 54.4949 97.156 34.1799 97.156 34.1799C97.156 34.1799 98.8775 32.6475 97.3275 30.8125C95.7775 28.9765 98.161 26.5929 98.161 26.5929C98.161 26.5929 100.796 24.1893 97.3275 21.1288C93.8593 18.0683 89.2163 23.0484 89.2163 23.0484L61.862 49.5579L69.324 57.2769L93.407 32.2679ZM30.5866 84.6295L33.8866 88.1692L28.0359 91.8586C26.6329 92.7433 26.1664 92.2969 26.9955 90.8587L30.5866 84.6295ZM35.2008 87.0961C35.2008 87.0961 40.5182 85.1184 68.0568 58.6151L60.5788 50.8191C60.5788 50.8191 34.4848 76.1971 31.6208 83.2771L35.2008 87.0961Z" fill="white"/>
</g>
<defs>
<linearGradient id="paint0_linear_401_1254" x1="0" y1="0" x2="0" y2="120" gradientUnits="userSpaceOnUse">
<stop stop-color="#FFBA00"/>
<stop offset="1" stop-color="#FF8500"/>
</linearGradient>
</defs>
</svg>
