<svg width="23" height="23" viewBox="0 0 23 23" fill="none" xmlns="http://www.w3.org/2000/svg">
<path d="M3.37305 17.5312C2.2487 17.5312 1.40365 17.2555 0.837891 16.7041C0.279297 16.1455 0 15.3112 0 14.2012V3.33008C0 2.22005 0.279297 1.38932 0.837891 0.837891C1.40365 0.279297 2.2487 0 3.37305 0H14.1582C15.2754 0 16.1133 0.279297 16.6719 0.837891C17.2376 1.39648 17.5205 2.22721 17.5205 3.33008V5.7793H15.791V3.42676C15.791 2.86816 15.6442 2.44564 15.3506 2.15918C15.0641 1.87272 14.6559 1.72949 14.126 1.72949H3.39453C2.85742 1.72949 2.44564 1.87272 2.15918 2.15918C1.87272 2.44564 1.72949 2.86816 1.72949 3.42676V14.1045C1.72949 14.6631 1.87272 15.0856 2.15918 15.3721C2.44564 15.6585 2.85742 15.8018 3.39453 15.8018H6.09082V17.5312H3.37305ZM8.58301 22.5049C7.45866 22.5049 6.61361 22.2256 6.04785 21.667C5.48926 21.1156 5.20996 20.2848 5.20996 19.1748V8.30371C5.20996 7.19368 5.48926 6.36296 6.04785 5.81152C6.61361 5.25293 7.45866 4.97363 8.58301 4.97363H19.3682C20.4854 4.97363 21.3232 5.25293 21.8818 5.81152C22.4476 6.37012 22.7305 7.20085 22.7305 8.30371V19.1748C22.7305 20.2777 22.4476 21.1084 21.8818 21.667C21.3232 22.2256 20.4854 22.5049 19.3682 22.5049H8.58301ZM8.60449 20.7754H19.3359C19.8659 20.7754 20.2741 20.6322 20.5605 20.3457C20.8542 20.0592 21.001 19.6367 21.001 19.0781V8.40039C21.001 7.8418 20.8542 7.41927 20.5605 7.13281C20.2741 6.84635 19.8659 6.70312 19.3359 6.70312H8.60449C8.06738 6.70312 7.6556 6.84635 7.36914 7.13281C7.08268 7.41927 6.93945 7.8418 6.93945 8.40039V19.0781C6.93945 19.6367 7.08268 20.0592 7.36914 20.3457C7.6556 20.6322 8.06738 20.7754 8.60449 20.7754Z" fill="#007BFE"/>
</svg>
