<svg width="120" height="120" viewBox="0 0 120 120" fill="none" xmlns="http://www.w3.org/2000/svg">
<g clip-path="url(#clip0_401_1323)">
<path fill-rule="evenodd" clip-rule="evenodd" d="M5.17919e-05 94.0501V26.0501C-0.0067736 22.6338 0.661078 19.2498 1.96528 16.0923C3.26949 12.9347 5.18437 10.0658 7.60005 7.6501C10.0157 5.23442 12.8847 3.31954 16.0422 2.01533C19.1998 0.711127 22.5838 0.0432752 26.0001 0.0501006H94.0001C97.4163 0.0432752 100.8 0.711127 103.958 2.01533C107.115 3.31954 109.984 5.23442 112.4 7.6501C114.816 10.0658 116.731 12.9347 118.035 16.0923C119.339 19.2498 120.007 22.6338 120 26.0501V94.0501C120.007 97.4664 119.339 100.85 118.035 104.008C116.731 107.165 114.816 110.034 112.4 112.45C109.984 114.866 107.115 116.781 103.958 118.085C100.8 119.389 97.4163 120.057 94.0001 120.05H26.0001C19.1054 120.047 12.494 117.307 7.61879 112.431C2.74353 107.556 0.00323174 100.945 5.17919e-05 94.0501Z" fill="white"/>
<path fill-rule="evenodd" clip-rule="evenodd" d="M22 25.2501H35.5C37.4728 25.2326 39.3745 25.9861 40.8 27.3501C43.9 30.1501 46 31.6501 47.3 31.6501C48.5 31.6501 41.9 37.2501 27.4 48.4501C26.1862 49.3839 24.7352 49.9592 23.2112 50.1107C21.6873 50.2622 20.1514 49.984 18.7774 49.3074C17.4035 48.6309 16.2465 47.5831 15.4375 46.2827C14.6285 44.9824 14.1998 43.4815 14.2 41.9501V33.1501C14.191 32.1185 14.3859 31.0954 14.7735 30.1394C15.1611 29.1834 15.7337 28.3134 16.4585 27.5793C17.1833 26.8452 18.0459 26.2616 18.9969 25.8619C19.9479 25.4621 20.9684 25.2542 22 25.2501Z" fill="#1AA6F7"/>
<path fill-rule="evenodd" clip-rule="evenodd" d="M39.3 31.55H98C100.068 31.5527 102.05 32.3753 103.513 33.8375C104.975 35.2998 105.797 37.2822 105.8 39.35V56.9501C105.797 59.0179 104.975 61.0003 103.513 62.4626C102.05 63.9248 100.068 64.7474 98 64.75H39.3C37.2321 64.7474 35.2497 63.9248 33.7875 62.4626C32.3253 61.0003 31.5026 59.0179 31.5 56.9501V39.35C31.5196 37.2874 32.3477 35.3148 33.8062 33.8563C35.2648 32.3977 37.2374 31.5696 39.3 31.55Z" fill="#1AA6F7"/>
<path fill-rule="evenodd" clip-rule="evenodd" d="M20.9 36.35H99.1C99.3495 36.3498 99.5967 36.3988 99.8273 36.4942C100.058 36.5897 100.267 36.7296 100.444 36.9061C100.62 37.0825 100.76 37.2921 100.856 37.5227C100.951 37.7533 101 38.0004 101 38.25V67.55C101 67.7995 100.951 68.0467 100.856 68.2773C100.76 68.5079 100.62 68.7174 100.444 68.8939C100.267 69.0703 100.058 69.2103 99.8273 69.3057C99.5967 69.4011 99.3495 69.4501 99.1 69.45H20.9C20.6504 69.4501 20.4033 69.4011 20.1727 69.3057C19.9421 69.2103 19.7326 69.0703 19.5561 68.8939C19.3796 68.7174 19.2397 68.5079 19.1443 68.2773C19.0488 68.0467 18.9998 67.7995 19 67.55V38.25C18.9829 37.996 19.0204 37.7414 19.1098 37.5032C19.1993 37.2649 19.3387 37.0485 19.5186 36.8686C19.6986 36.6886 19.9149 36.5492 20.1532 36.4598C20.3914 36.3703 20.6461 36.3329 20.9 36.35Z" fill="white"/>
<path fill-rule="evenodd" clip-rule="evenodd" d="M18.1 39.45H101.9C102.934 39.4512 103.925 39.8625 104.656 40.5936C105.387 41.3248 105.799 42.316 105.8 43.3499V86.9499C105.797 89.0178 104.975 91.0002 103.512 92.4625C102.05 93.9247 100.068 94.7473 98 94.75H22C19.9321 94.7473 17.9497 93.9247 16.4874 92.4625C15.0252 91.0002 14.2026 89.0178 14.2 86.9499V43.3499C14.2012 42.316 14.6125 41.3247 15.3436 40.5936C16.0747 39.8625 17.066 39.4512 18.1 39.45Z" fill="url(#paint0_linear_401_1323)"/>
</g>
<defs>
<linearGradient id="paint0_linear_401_1323" x1="59.9921" y1="94.7591" x2="59.9921" y2="39.4616" gradientUnits="userSpaceOnUse">
<stop stop-color="#1D77F2"/>
<stop offset="1" stop-color="#18C1FA"/>
</linearGradient>
<clipPath id="clip0_401_1323">
<rect width="120" height="120" fill="white"/>
</clipPath>
</defs>
</svg>
