<svg width="120" height="120" viewBox="0 0 120 120" fill="none" xmlns="http://www.w3.org/2000/svg">
<path fill-rule="evenodd" clip-rule="evenodd" d="M91.4062 0C108.75 0 120 11.25 120 28.5938V91.4062C120 108.75 108.75 120 91.4062 120H28.5938C11.25 120 0 108.75 0 91.4062V28.5938C0 11.25 11.25 0 28.5938 0H91.4062Z" fill="#252525"/>
<path d="M59.995 21C37.91 21 20 38.98 20 61.16C19.991 69.5777 22.6276 77.7854 27.5372 84.6231C32.4468 91.4608 39.381 96.5827 47.36 99.2649C49.36 99.6349 50.09 98.395 50.09 97.3299C50.09 96.3749 50.055 93.85 50.035 90.5C38.91 92.9249 36.56 85.115 36.56 85.115C34.745 80.475 32.12 79.24 32.12 79.24C28.485 76.75 32.39 76.8 32.39 76.8C36.405 77.085 38.515 80.94 38.515 80.94C42.085 87.075 47.88 85.305 50.16 84.275C50.52 81.68 51.555 79.91 52.7 78.905C43.82 77.89 34.48 74.445 34.48 59.06C34.48 54.675 36.04 51.09 38.6 48.28C38.185 47.265 36.815 43.18 38.99 37.655C38.99 37.655 42.35 36.575 49.99 41.77C53.2537 40.878 56.6216 40.4241 60.005 40.42C63.3886 40.4267 66.7563 40.8823 70.02 41.775C77.655 36.58 81.01 37.66 81.01 37.66C83.19 43.19 81.82 47.27 81.41 48.285C83.975 51.095 85.52 54.68 85.52 59.065C85.52 74.49 76.17 77.885 67.26 78.88C68.695 80.12 69.975 82.57 69.975 86.315C69.975 91.685 69.925 96.0149 69.925 97.3299C69.925 98.4049 70.645 99.655 72.675 99.2599C80.6462 96.5714 87.5719 91.4475 92.4746 84.6115C97.3774 77.7754 100.01 69.5724 100 61.16C100 38.98 82.09 21 59.995 21Z" fill="white"/>
</svg>
