<svg width="120" height="120" viewBox="0 0 120 120" fill="none" xmlns="http://www.w3.org/2000/svg">
<path fill-rule="evenodd" clip-rule="evenodd" d="M91.4062 0C108.75 0 120 11.25 120 28.5938V91.4062C120 108.75 108.75 120 91.4062 120H28.5938C11.25 120 0 108.75 0 91.4062V28.5938C0 11.25 11.25 0 28.5938 0H91.4062Z" fill="url(#paint0_linear_401_345)"/>
<path fill-rule="evenodd" clip-rule="evenodd" d="M67.7106 65.388L98.2791 34.1645L21.7467 34L52.3382 65.3785C56.5749 69.7242 63.4593 69.7304 67.7106 65.388ZM99.7491 35.8745V83.2632L76.504 59.5609L99.7491 35.8745ZM20 36V83.3887L43.245 59.6864L20 36ZM68.2507 68.021L74.5358 61.6372L97.0145 84.9805H59.8818H22.7491L45.2018 61.6372L51.5129 68.021C51.5129 68.021 54.6971 71.1616 59.8818 71.2253C65.0665 71.1616 68.2507 68.021 68.2507 68.021Z" fill="white"/>
<defs>
<linearGradient id="paint0_linear_401_345" x1="0" y1="0" x2="0" y2="120" gradientUnits="userSpaceOnUse">
<stop stop-color="#1D62F0"/>
<stop offset="1" stop-color="#19D5FD"/>
</linearGradient>
</defs>
</svg>
