<svg width="24" height="20" viewBox="0 0 24 20" fill="none" xmlns="http://www.w3.org/2000/svg">
<path d="M0 18.165V3.58789C0 3.49479 0.00716146 3.40885 0.0214844 3.33008C0.0358073 3.2513 0.0716146 3.16536 0.128906 3.07227C0.451172 2.52083 0.920247 2.01237 1.53613 1.54688C2.15918 1.08138 2.88965 0.708984 3.72754 0.429688C4.57259 0.143229 5.48926 0 6.47754 0C7.64486 0 8.70833 0.211263 9.66797 0.633789C10.6348 1.04915 11.3903 1.58984 11.9346 2.25586C12.4717 1.58984 13.2201 1.04915 14.1797 0.633789C15.1465 0.211263 16.2171 0 17.3916 0C18.3727 0 19.2822 0.143229 20.1201 0.429688C20.9652 0.708984 21.6992 1.08138 22.3223 1.54688C22.9453 2.01237 23.4144 2.52083 23.7295 3.07227C23.7868 3.16536 23.8226 3.2513 23.8369 3.33008C23.8512 3.40885 23.8584 3.49479 23.8584 3.58789V18.165C23.8584 18.609 23.7367 18.9242 23.4932 19.1104C23.2497 19.2965 22.9704 19.3896 22.6553 19.3896C22.4691 19.3896 22.29 19.3431 22.1182 19.25C21.9463 19.1641 21.7601 19.0566 21.5596 18.9277C20.9652 18.5267 20.3135 18.208 19.6045 17.9717C18.9027 17.7425 18.1794 17.6315 17.4346 17.6387C16.654 17.6458 15.8913 17.7926 15.1465 18.0791C14.4089 18.3656 13.7393 18.7988 13.1377 19.3789C12.9085 19.5938 12.6973 19.7406 12.5039 19.8193C12.3177 19.9053 12.1279 19.9482 11.9346 19.9482C11.734 19.9482 11.5407 19.9053 11.3545 19.8193C11.1683 19.7406 10.957 19.5938 10.7207 19.3789C10.1191 18.7988 9.44596 18.3656 8.70117 18.0791C7.96354 17.7926 7.20801 17.6458 6.43457 17.6387C5.68262 17.6315 4.95215 17.7425 4.24316 17.9717C3.54134 18.208 2.89323 18.5267 2.29883 18.9277C2.09831 19.0566 1.91211 19.1641 1.74023 19.25C1.56836 19.3431 1.3929 19.3896 1.21387 19.3896C0.891602 19.3896 0.608724 19.2965 0.365234 19.1104C0.121745 18.9242 0 18.609 0 18.165ZM1.72949 17.252C2.29525 16.8438 2.99349 16.5179 3.82422 16.2744C4.65495 16.0309 5.53939 15.9092 6.47754 15.9092C7.07194 15.9092 7.65202 15.9772 8.21777 16.1133C8.78353 16.2422 9.30632 16.4212 9.78613 16.6504C10.2731 16.8796 10.6992 17.141 11.0645 17.4346V3.89941C10.6849 3.24056 10.0798 2.71419 9.24902 2.32031C8.41829 1.92643 7.49447 1.72949 6.47754 1.72949C5.81152 1.72949 5.17057 1.81901 4.55469 1.99805C3.94596 2.16992 3.39453 2.41341 2.90039 2.72852C2.40625 3.04362 2.01595 3.41243 1.72949 3.83496V17.252ZM12.7939 17.4346C13.1592 17.141 13.5853 16.8796 14.0723 16.6504C14.5592 16.4212 15.082 16.2422 15.6406 16.1133C16.2064 15.9772 16.79 15.9092 17.3916 15.9092C18.3226 15.9092 19.2035 16.0309 20.0342 16.2744C20.8649 16.5179 21.5632 16.8438 22.1289 17.252V3.83496C21.8424 3.41243 21.4521 3.04362 20.958 2.72852C20.4639 2.41341 19.9089 2.16992 19.293 1.99805C18.6842 1.81901 18.0505 1.72949 17.3916 1.72949C16.3675 1.72949 15.4401 1.92643 14.6094 2.32031C13.7786 2.71419 13.1735 3.24056 12.7939 3.89941V17.4346Z" fill="#007BFE"/>
</svg>
