<svg width="20" height="25" viewBox="0 0 20 25" fill="none" xmlns="http://www.w3.org/2000/svg">
<path d="M3.37305 24.1377C2.2487 24.1377 1.40365 23.8584 0.837891 23.2998C0.279297 22.7484 0 21.9176 0 20.8076V10.2051C0 9.09505 0.279297 8.26432 0.837891 7.71289C1.40365 7.1543 2.2487 6.875 3.37305 6.875H6.66016V8.60449H3.39453C2.85742 8.60449 2.44564 8.74772 2.15918 9.03418C1.87272 9.31348 1.72949 9.73242 1.72949 10.291V20.7217C1.72949 21.2803 1.87272 21.6992 2.15918 21.9785C2.44564 22.265 2.85742 22.4082 3.39453 22.4082H15.6621C16.1921 22.4082 16.6038 22.265 16.8975 21.9785C17.1911 21.6992 17.3379 21.2803 17.3379 20.7217V10.291C17.3379 9.73242 17.1911 9.31348 16.8975 9.03418C16.6038 8.74772 16.1921 8.60449 15.6621 8.60449H12.3965V6.875H15.6943C16.8187 6.875 17.6602 7.1543 18.2188 7.71289C18.7845 8.26432 19.0674 9.09505 19.0674 10.2051V20.8076C19.0674 21.9176 18.7845 22.7484 18.2188 23.2998C17.6602 23.8584 16.8187 24.1377 15.6943 24.1377H3.37305ZM9.52832 15.7158C9.29915 15.7158 9.09863 15.6335 8.92676 15.4688C8.76204 15.304 8.67969 15.1107 8.67969 14.8887V3.95312L8.74414 2.35254L8.14258 2.98633L6.47754 4.75879C6.32715 4.93066 6.13021 5.0166 5.88672 5.0166C5.66471 5.0166 5.47852 4.94499 5.32812 4.80176C5.1849 4.65853 5.11328 4.47949 5.11328 4.26465C5.11328 4.05697 5.19922 3.86719 5.37109 3.69531L8.90527 0.279297C9.01986 0.171875 9.1237 0.10026 9.2168 0.0644531C9.31706 0.0214844 9.4209 0 9.52832 0C9.6429 0 9.74674 0.0214844 9.83984 0.0644531C9.9401 0.10026 10.0439 0.171875 10.1514 0.279297L13.6963 3.69531C13.861 3.86719 13.9434 4.05697 13.9434 4.26465C13.9434 4.47949 13.8682 4.65853 13.7178 4.80176C13.5674 4.94499 13.3812 5.0166 13.1592 5.0166C12.9229 5.0166 12.7295 4.93066 12.5791 4.75879L10.9248 2.98633L10.3232 2.35254L10.3877 3.95312V14.8887C10.3877 15.1107 10.3018 15.304 10.1299 15.4688C9.96517 15.6335 9.76465 15.7158 9.52832 15.7158Z" fill="#007BFE"/>
</svg>
