<svg width="120" height="120" viewBox="0 0 120 120" fill="none" xmlns="http://www.w3.org/2000/svg">
<path fill-rule="evenodd" clip-rule="evenodd" d="M91.4062 0C108.75 0 120 11.25 120 28.5938V91.4062C120 108.75 108.75 120 91.4062 120H28.5938C11.25 120 0 108.75 0 91.4062V28.5938C0 11.25 11.25 0 28.5938 0H91.4062Z" fill="white"/>
<g clip-path="url(#clip0_401_1166)">
<path d="M76.8866 50H99.1005C101.199 50 102.9 51.7012 102.9 53.7999V74.034C102.9 81.7472 96.6477 87.9999 88.9345 87.9999H88.8685C81.1553 88.0011 74.9018 81.7491 74.9006 74.0359C74.9006 74.0352 74.9006 74.0348 74.9006 74.034V51.986C74.9006 50.889 75.7896 50 76.8866 50Z" fill="#5059C9"/>
<path d="M91.9005 46C96.8711 46 100.901 41.9706 100.901 37C100.901 32.0294 96.8711 28 91.9005 28C86.93 28 82.9005 32.0294 82.9005 37C82.9005 41.9706 86.93 46 91.9005 46Z" fill="#5059C9"/>
<path d="M63.9004 46.0003C71.0801 46.0003 76.9005 40.1799 76.9005 33.0002C76.9005 25.8204 71.0801 20 63.9004 20C56.7206 20 50.9002 25.8204 50.9002 33.0002C50.9002 40.1799 56.7206 46.0003 63.9004 46.0003Z" fill="#7B83EB"/>
<path d="M81.2344 50H44.5664C42.4928 50.0513 40.8522 51.7722 40.9004 53.8462V76.924C40.6106 89.3686 50.4564 99.6955 62.9006 100C75.3447 99.6955 85.1901 89.3686 84.9007 76.924V53.8462C84.9486 51.7722 83.3083 50.0513 81.2344 50Z" fill="#7B83EB"/>
<path opacity="0.1" d="M64.9005 50V82.3402C64.8905 83.8235 63.9918 85.1554 62.6205 85.7203C62.1837 85.9051 61.7145 86.0001 61.2403 86.0004H42.6603C42.4003 85.3406 42.1603 84.6804 41.9604 84.0006C41.2605 81.7055 40.9032 79.3198 40.9005 76.9206V53.84C40.8522 51.7695 42.4902 50.0513 44.5603 50H64.9005Z" fill="black"/>
<path opacity="0.2" d="M62.9006 50V84.3401C62.9006 84.8143 62.8053 85.2835 62.6205 85.7203C62.056 87.0916 60.7236 87.9903 59.2404 88.0003H43.6003C43.2603 87.3405 42.9405 86.6803 42.6603 86.0004C42.3802 85.3206 42.1603 84.6804 41.9604 84.0006C41.2605 81.7055 40.9032 79.3198 40.9005 76.9206V53.84C40.8522 51.7695 42.4902 50.0513 44.5603 50H62.9006Z" fill="black"/>
<path opacity="0.2" d="M62.9006 50V80.34C62.8852 82.3549 61.2557 83.9848 59.2408 83.9998H41.9604C41.2605 81.7047 40.9032 79.319 40.9005 76.9198V53.84C40.8522 51.7695 42.4902 50.0513 44.5603 50H62.9006Z" fill="black"/>
<path opacity="0.2" d="M60.9004 50V80.34C60.8849 82.3549 59.2555 83.9848 57.2405 83.9998H41.9604C41.2605 81.7047 40.9032 79.319 40.9005 76.9198V53.84C40.8522 51.7695 42.4902 50.0513 44.5603 50H60.9004Z" fill="black"/>
<path opacity="0.1" d="M64.9005 39.6599V45.9601C64.5605 45.9802 64.2407 46.0002 63.9003 46.0002C63.56 46.0002 63.2405 45.9802 62.9002 45.9601C62.225 45.9154 61.5555 45.8081 60.9003 45.6402C56.8504 44.681 53.5043 41.8408 51.9003 38.0004C51.6244 37.3556 51.4099 36.6858 51.2602 36.0005H61.2403C63.2587 36.0078 64.8928 37.6419 64.9005 39.6599Z" fill="black"/>
<path opacity="0.2" d="M62.9006 41.6599V45.9602C62.2253 45.9155 61.5559 45.8082 60.9007 45.6404C56.8508 44.6811 53.5047 41.8409 51.9007 38.0005H59.2408C61.2588 38.0078 62.8929 39.6419 62.9006 41.6599Z" fill="black"/>
<path opacity="0.2" d="M62.9006 41.6599V45.9602C62.2253 45.9155 61.5559 45.8082 60.9007 45.6404C56.8508 44.6811 53.5047 41.8409 51.9007 38.0005H59.2408C61.2588 38.0078 62.8929 39.6419 62.9006 41.6599Z" fill="black"/>
<path opacity="0.2" d="M60.9003 41.6598V45.6399C56.8504 44.6807 53.5043 41.8404 51.9003 38H57.2405C59.2585 38.0077 60.8926 39.6418 60.9003 41.6598Z" fill="black"/>
<path d="M20.5664 38H57.2343C59.2589 38 60.9003 39.6414 60.9003 41.666V78.334C60.9003 80.3585 59.2589 81.9999 57.2343 81.9999H20.5664C18.5418 81.9999 16.9004 80.3585 16.9004 78.334V41.666C16.9004 39.6414 18.5418 38 20.5664 38Z" fill="url(#paint0_linear_401_1166)"/>
<path d="M48.5484 51.956H41.2184V71.9162H36.5484V51.956H29.2523V48.084H48.5484V51.956Z" fill="white"/>
</g>
<defs>
<linearGradient id="paint0_linear_401_1166" x1="24.5441" y1="35.1355" x2="53.2567" y2="84.8646" gradientUnits="userSpaceOnUse">
<stop stop-color="#5A62C3"/>
<stop offset="0.5" stop-color="#4D55BD"/>
<stop offset="1" stop-color="#3940AB"/>
</linearGradient>
<clipPath id="clip0_401_1166">
<rect width="86" height="80" fill="white" transform="translate(16.9004 20)"/>
</clipPath>
</defs>
</svg>
